<mxfile host="app.diagrams.net" modified="2024-04-09T15:56:36.361Z" agent="Mozilla/5.0 (Windows NT 10.0; Win64; x64) AppleWebKit/537.36 (KHTML, like Gecko) Chrome/122.0.0.0 Safari/537.36 Edg/122.0.0.0" version="23.1.8" etag="MNljinu916yjIw398Phc" type="github">
  <diagram name="Page-1" id="nCT1uwzYx-G7Gssy_zUF">
    <mxGraphModel>
      <root>
        <mxCell id="0" />
        <mxCell id="1" parent="0" />
      </root>
    </mxGraphModel>
  </diagram>
</mxfile>
